<svg class="main-svg" xmlns="http://www.w3.org/2000/svg" xmlns:xlink="http://www.w3.org/1999/xlink" width="700" height="500" style="" viewBox="0 0 700 500"><rect x="0" y="0" width="700" height="500" style="fill: rgb(255, 255, 255); fill-opacity: 1;"/><defs id="defs-7215ee"><g class="clips"><clipPath id="clip7215eexyplot" class="plotclip"><rect width="556" height="372"/></clipPath><clipPath class="axesclip" id="clip7215eex"><rect x="144" y="0" width="556" height="500"/></clipPath><clipPath class="axesclip" id="clip7215eey"><rect x="0" y="80" width="700" height="372"/></clipPath><clipPath class="axesclip" id="clip7215eexy"><rect x="144" y="80" width="556" height="372"/></clipPath></g><g class="gradients"/><g class="patterns"/></defs><g class="bglayer"><rect class="bg" x="144" y="80" width="556" height="372" style="fill: rgb(237, 237, 237); fill-opacity: 1; stroke-width: 0;"/></g><g class="layer-below"><g class="imagelayer"/><g class="shapelayer"/></g><g class="cartesianlayer"><g class="subplot xy"><g class="layer-subplot"><g class="shapelayer"/><g class="imagelayer"/></g><g class="minor-gridlayer"><g class="x"/><g class="y"/></g><g class="gridlayer"><g class="x"><path class="xgrid crisp" transform="translate(281.35,0)" d="M0,80v372" style="stroke: rgb(255, 255, 255); stroke-opacity: 1; stroke-width: 1px;"/><path class="xgrid crisp" transform="translate(418.7,0)" d="M0,80v372" style="stroke: rgb(255, 255, 255); stroke-opacity: 1; stroke-width: 1px;"/><path class="xgrid crisp" transform="translate(556.06,0)" d="M0,80v372" style="stroke: rgb(255, 255, 255); stroke-opacity: 1; stroke-width: 1px;"/><path class="xgrid crisp" transform="translate(693.41,0)" d="M0,80v372" style="stroke: rgb(255, 255, 255); stroke-opacity: 1; stroke-width: 1px;"/></g><g class="y"><path class="ygrid crisp" transform="translate(0,405.5)" d="M144,0h556" style="stroke: rgb(255, 255, 255); stroke-opacity: 1; stroke-width: 1px;"/><path class="ygrid crisp" transform="translate(0,312.5)" d="M144,0h556" style="stroke: rgb(255, 255, 255); stroke-opacity: 1; stroke-width: 1px;"/><path class="ygrid crisp" transform="translate(0,219.5)" d="M144,0h556" style="stroke: rgb(255, 255, 255); stroke-opacity: 1; stroke-width: 1px;"/><path class="ygrid crisp" transform="translate(0,126.5)" d="M144,0h556" style="stroke: rgb(255, 255, 255); stroke-opacity: 1; stroke-width: 1px;"/></g></g><g class="zerolinelayer"><path class="xzl zl crisp" transform="translate(144,0)" d="M0,80v372" style="stroke: rgb(255, 255, 255); stroke-opacity: 1; stroke-width: 1px;"/></g><path class="xlines-below"/><path class="ylines-below"/><g class="overlines-below"/><g class="xaxislayer-below"/><g class="yaxislayer-below"/><g class="overaxes-below"/><g class="plot" transform="translate(144,80)" clip-path="url(#clip7215eexyplot)"><g class="boxlayer mlayer"><g class="trace boxes" style="opacity: 1;"><path class="box" d="M112.63,348.29V302.72M71.42,348.29V302.72H153.83V348.29ZM71.42,325.5H54.94M153.83,325.5H225.26M54.94,336.89V314.11M225.26,336.89V314.11" style="vector-effect: non-scaling-stroke; stroke-width: 2px; stroke: rgb(248, 118, 109); stroke-opacity: 1; fill: rgb(248, 118, 109); fill-opacity: 0.5;"/><g class="points"/></g><g class="trace boxes" style="opacity: 1;"><path class="box" d="M129.11,255.29V209.72M98.89,255.29V209.72H269.21V255.29ZM98.89,232.5H54.94M269.21,232.5H461.5M54.94,243.89V221.11M461.5,243.89V221.11" style="vector-effect: non-scaling-stroke; stroke-width: 2px; stroke: rgb(163, 165, 0); stroke-opacity: 1; fill: rgb(163, 165, 0); fill-opacity: 0.5;"/><g class="points"/></g><g class="trace boxes" style="opacity: 1;"><path class="box" d="M112.63,162.29V116.72M71.42,162.29V116.72H153.83V162.29ZM71.42,139.5H54.94M153.83,139.5H225.26M54.94,150.89V128.11M225.26,150.89V128.11" style="vector-effect: non-scaling-stroke; stroke-width: 2px; stroke: rgb(0, 191, 125); stroke-opacity: 1; fill: rgb(0, 191, 125); fill-opacity: 0.5;"/><g class="points"/></g><g class="trace boxes" style="opacity: 1;"><path class="box" d="M129.11,69.29V23.71M98.89,69.29V23.71H340.63V69.29ZM98.89,46.5H54.94M340.63,46.5H505.45M54.94,57.89V35.11M505.45,57.89V35.11" style="vector-effect: non-scaling-stroke; stroke-width: 2px; stroke: rgb(0, 176, 246); stroke-opacity: 1; fill: rgb(0, 176, 246); fill-opacity: 0.5;"/><g class="points"/></g></g></g><g class="overplot"/><path class="xlines-above crisp" d="" style="fill: none; stroke-width: 1px; stroke: rgb(0, 0, 0); stroke-opacity: 0;"/><path class="ylines-above crisp" d="" style="fill: none; stroke-width: 1px; stroke: rgb(0, 0, 0); stroke-opacity: 0;"/><g class="overlines-above"/><g class="xaxislayer-above"><path class="xtick ticks crisp" d="M0,453v5" transform="translate(144,0)" style="stroke: rgb(51, 51, 51); stroke-opacity: 1; stroke-width: 1px;"/><path class="xtick ticks crisp" d="M0,453v5" transform="translate(281.35,0)" style="stroke: rgb(51, 51, 51); stroke-opacity: 1; stroke-width: 1px;"/><path class="xtick ticks crisp" d="M0,453v5" transform="translate(418.7,0)" style="stroke: rgb(51, 51, 51); stroke-opacity: 1; stroke-width: 1px;"/><path class="xtick ticks crisp" d="M0,453v5" transform="translate(556.06,0)" style="stroke: rgb(51, 51, 51); stroke-opacity: 1; stroke-width: 1px;"/><path class="xtick ticks crisp" d="M0,453v5" transform="translate(693.41,0)" style="stroke: rgb(51, 51, 51); stroke-opacity: 1; stroke-width: 1px;"/><g class="xtick"><text text-anchor="middle" x="0" y="472.4" transform="translate(144,0)" style="font-family: 'Open Sans', verdana, arial, sans-serif; font-size: 12px; fill: rgb(51, 51, 51); fill-opacity: 1; white-space: pre; opacity: 1;">0</text></g><g class="xtick"><text text-anchor="middle" x="0" y="472.4" style="font-family: 'Open Sans', verdana, arial, sans-serif; font-size: 12px; fill: rgb(51, 51, 51); fill-opacity: 1; white-space: pre; opacity: 1;" transform="translate(281.35,0)">5</text></g><g class="xtick"><text text-anchor="middle" x="0" y="472.4" style="font-family: 'Open Sans', verdana, arial, sans-serif; font-size: 12px; fill: rgb(51, 51, 51); fill-opacity: 1; white-space: pre; opacity: 1;" transform="translate(418.7,0)">10</text></g><g class="xtick"><text text-anchor="middle" x="0" y="472.4" style="font-family: 'Open Sans', verdana, arial, sans-serif; font-size: 12px; fill: rgb(51, 51, 51); fill-opacity: 1; white-space: pre; opacity: 1;" transform="translate(556.06,0)">15</text></g><g class="xtick"><text text-anchor="middle" x="0" y="472.4" style="font-family: 'Open Sans', verdana, arial, sans-serif; font-size: 12px; fill: rgb(51, 51, 51); fill-opacity: 1; white-space: pre; opacity: 0;" transform="translate(693.41,0)">20</text></g></g><g class="yaxislayer-above"><path class="ytick ticks crisp" d="M143,0h-5" transform="translate(0,405.5)" style="stroke: rgb(51, 51, 51); stroke-opacity: 1; stroke-width: 1px;"/><path class="ytick ticks crisp" d="M143,0h-5" transform="translate(0,312.5)" style="stroke: rgb(51, 51, 51); stroke-opacity: 1; stroke-width: 1px;"/><path class="ytick ticks crisp" d="M143,0h-5" transform="translate(0,219.5)" style="stroke: rgb(51, 51, 51); stroke-opacity: 1; stroke-width: 1px;"/><path class="ytick ticks crisp" d="M143,0h-5" transform="translate(0,126.5)" style="stroke: rgb(51, 51, 51); stroke-opacity: 1; stroke-width: 1px;"/><g class="ytick"><text text-anchor="end" x="135.6" y="4.199999999999999" transform="translate(0,405.5)translate(0,-7.800000000000001)" style="font-family: 'Open Sans', verdana, arial, sans-serif; font-size: 12px; fill: rgb(51, 51, 51); fill-opacity: 1; white-space: pre; opacity: 1;"><tspan class="line" dy="0em" x="135.6" y="4.199999999999999">Windows ANSI</tspan><tspan class="line" dy="1.3em" x="135.6" y="4.199999999999999"><tspan style="font-weight:bold">ColemakImTotal</tspan></tspan></text></g><g class="ytick"><text text-anchor="end" x="135.6" y="4.199999999999999" transform="translate(0,312.5)translate(0,-7.800000000000001)" style="font-family: 'Open Sans', verdana, arial, sans-serif; font-size: 12px; fill: rgb(51, 51, 51); fill-opacity: 1; white-space: pre; opacity: 1;"><tspan class="line" dy="0em" x="135.6" y="4.199999999999999">Windows ANSI</tspan><tspan class="line" dy="1.3em" x="135.6" y="4.199999999999999"><tspan style="font-weight:bold">QwertyTotal</tspan></tspan></text></g><g class="ytick"><text text-anchor="end" x="135.6" y="4.199999999999999" transform="translate(0,219.5)translate(0,-7.800000000000001)" style="font-family: 'Open Sans', verdana, arial, sans-serif; font-size: 12px; fill: rgb(51, 51, 51); fill-opacity: 1; white-space: pre; opacity: 1;"><tspan class="line" dy="0em" x="135.6" y="4.199999999999999">Windows ISO</tspan><tspan class="line" dy="1.3em" x="135.6" y="4.199999999999999"><tspan style="font-weight:bold">ColemakImTotal</tspan></tspan></text></g><g class="ytick"><text text-anchor="end" x="135.6" y="4.199999999999999" transform="translate(0,126.5)translate(0,-7.800000000000001)" style="font-family: 'Open Sans', verdana, arial, sans-serif; font-size: 12px; fill: rgb(51, 51, 51); fill-opacity: 1; white-space: pre; opacity: 1;"><tspan class="line" dy="0em" x="135.6" y="4.199999999999999">Windows ISO</tspan><tspan class="line" dy="1.3em" x="135.6" y="4.199999999999999"><tspan style="font-weight:bold">QwertyTotal</tspan></tspan></text></g></g><g class="overaxes-above"/></g></g><g class="polarlayer"/><g class="smithlayer"/><g class="ternarylayer"/><g class="geolayer"/><g class="funnelarealayer"/><g class="pielayer"/><g class="iciclelayer"/><g class="treemaplayer"/><g class="sunburstlayer"/><g class="glimages"/><defs id="topdefs-7215ee"><g class="clips"/></defs><g class="layer-above"><g class="imagelayer"/><g class="shapelayer"/></g><g class="infolayer"><g class="g-gtitle"><text class="gtitle" x="0" y="25" text-anchor="start" dy="0.7em" style="font-family: 'Open Sans', verdana, arial, sans-serif; font-size: 17px; fill: rgb(51, 51, 51); opacity: 1; font-weight: normal; white-space: pre;"><tspan class="line" dy="0em" x="0" y="25">Difficulty of Different Layouts</tspan><tspan class="line" dy="1.3em" x="0" y="25">​<tspan style="font-size:70%" dy="-0.6em">Lower is better</tspan><tspan dy="0.42em">​</tspan></tspan></text></g><g class="g-xtitle" transform="translate(0,-3.2062500000000114)"><text class="xtitle" x="422" y="500.20625" text-anchor="middle" style="font-family: 'Open Sans', verdana, arial, sans-serif; font-size: 14px; fill: rgb(51, 51, 51); opacity: 1; font-weight: normal; white-space: pre;">Difficulty</text></g><g class="g-ytitle"/></g></svg>